<?xml version="1.0" encoding="UTF-8" standalone="no"?>
<!-- Generator: Adobe Illustrator 16.0.3, SVG Export Plug-In . SVG Version: 6.00 Build 0)  -->

<svg
   xmlns:dc="http://purl.org/dc/elements/1.1/"
   xmlns:cc="http://creativecommons.org/ns#"
   xmlns:rdf="http://www.w3.org/1999/02/22-rdf-syntax-ns#"
   xmlns:svg="http://www.w3.org/2000/svg"
   xmlns="http://www.w3.org/2000/svg"
   xmlns:sodipodi="http://sodipodi.sourceforge.net/DTD/sodipodi-0.dtd"
   xmlns:inkscape="http://www.inkscape.org/namespaces/inkscape"
   version="1.1"
   id="Layer_1"
   x="0px"
   y="0px"
   width="202.836"
   height="241.084"
   viewBox="0 0 202.836 241.084"
   enable-background="new 0 0 255.399 300"
   xml:space="preserve"
   sodipodi:docname="colorc.svg"
   inkscape:version="0.92.4 (5da689c313, 2019-01-14)"><metadata
   id="metadata983"><rdf:RDF><cc:Work
       rdf:about=""><dc:format>image/svg+xml</dc:format><dc:type
         rdf:resource="http://purl.org/dc/dcmitype/StillImage" /><dc:title></dc:title></cc:Work></rdf:RDF></metadata><defs
   id="defs981" /><sodipodi:namedview
   pagecolor="#ffffff"
   bordercolor="#666666"
   borderopacity="1"
   objecttolerance="10"
   gridtolerance="10"
   guidetolerance="10"
   inkscape:pageopacity="0"
   inkscape:pageshadow="2"
   inkscape:window-width="1920"
   inkscape:window-height="1027"
   id="namedview979"
   showgrid="false"
   inkscape:zoom="2.86"
   inkscape:cx="44.403503"
   inkscape:cy="153.67402"
   inkscape:window-x="-8"
   inkscape:window-y="-8"
   inkscape:window-maximized="1"
   inkscape:current-layer="Layer_1" />
<rect
   x="75.484009"
   y="211.88301"
   width="14.245"
   height="14.926"
   id="rect900"
   style="fill:#ffffff" />
<rect
   x="75.484009"
   y="211.88301"
   stroke-miterlimit="10"
   width="14.245"
   height="14.926"
   id="rect902"
   style="fill:none;stroke:#000000;stroke-width:2;stroke-miterlimit:10" />
<rect
   x="75.281006"
   y="211.68401"
   width="14.646"
   height="15.328"
   id="rect904"
   style="fill:none;stroke:#000000;stroke-width:2" />
<rect
   x="71.365997"
   y="225.98701"
   width="22.492001"
   height="13.889"
   id="rect906"
   style="fill:#ffffff" />
<rect
   x="71.365997"
   y="225.98701"
   stroke-miterlimit="10"
   width="22.492001"
   height="13.889"
   id="rect908"
   style="fill:none;stroke:#000000;stroke-width:2;stroke-miterlimit:10" />
<rect
   x="71.162003"
   y="225.78801"
   width="22.9"
   height="14.296"
   id="rect910"
   style="fill:none;stroke:#000000;stroke-width:2" />
<rect
   x="120.21201"
   y="211.88301"
   width="14.244"
   height="14.926"
   id="rect912"
   style="fill:#ffffff" />
<rect
   x="120.21201"
   y="211.88301"
   stroke-miterlimit="10"
   width="14.244"
   height="14.926"
   id="rect914"
   style="fill:none;stroke:#000000;stroke-width:2;stroke-miterlimit:10" />
<rect
   x="120.00801"
   y="211.68401"
   width="14.647"
   height="15.328"
   id="rect916"
   style="fill:none;stroke:#000000;stroke-width:2" />
<rect
   x="116.088"
   y="225.98701"
   width="22.497"
   height="13.889"
   id="rect918"
   style="fill:#ffffff" />
<rect
   x="116.088"
   y="225.98701"
   stroke-miterlimit="10"
   width="22.497"
   height="13.889"
   id="rect920"
   style="fill:none;stroke:#000000;stroke-width:2;stroke-miterlimit:10" />
<rect
   x="115.88901"
   y="225.78801"
   width="22.900999"
   height="14.296"
   id="rect922"
   style="fill:none;stroke:#000000;stroke-width:2" />












<path
   d="M 56.122001,199.308 H 151.68 m -0.326,-40.829 v 40.766 l -11.759,11.942 H 71.193001 l -14.568,-11.879 v -40.829 z"
   id="path952"
   inkscape:connector-curvature="0"
   style="fill:none;stroke:#000000;stroke-width:2" />
<path
   d="M 56.122001,158.039 H 151.68 m -95.055999,0 V 103.405 H 151.353 v 54.55"
   id="path954"
   inkscape:connector-curvature="0"
   style="fill:none;stroke:#000000;stroke-width:2" />
<path
   d="M 150.952,102.903 H 55.478001 C 32.054001,87.936002 11.608001,41.817002 9.0760012,5.7370017 H 193.976 C 193.055,39.234002 172.467,81.844002 150.952,102.903 Z"
   id="path956"
   inkscape:connector-curvature="0"
   style="fill:none;stroke:#000000;stroke-width:2" />
<rect
   x="1"
   y="1"
   width="200.836"
   height="5.1230001"
   id="rect958"
   style="fill:#ffffff" />
<rect
   x="1"
   y="1"
   stroke-miterlimit="10"
   width="200.836"
   height="5.1230001"
   id="rect960"
   style="fill:none;stroke:#000000;stroke-width:2;stroke-miterlimit:10" />
<rect
   x="1"
   y="1"
   width="200.836"
   height="5.1230001"
   id="rect962"
   style="fill:none;stroke:#000000;stroke-width:2" />
<path
   d="m 94.690001,103.102 c -1.419,0.089 -0.502,0 -2.125,0"
   id="path964"
   inkscape:connector-curvature="0"
   style="fill:none;stroke:#000000;stroke-width:2" />
<g
   id="g966"
   transform="translate(-41.647999,-53.759998)">
</g>
<g
   id="g968"
   transform="translate(-41.647999,-53.759998)">
</g>
<g
   id="g970"
   transform="translate(-41.647999,-53.759998)">
</g>
<g
   id="g972"
   transform="translate(-41.647999,-53.759998)">
</g>
<g
   id="g974"
   transform="translate(-41.647999,-53.759998)">
</g>
<g
   id="g976"
   transform="translate(-41.647999,-53.759998)">
</g>
<style
   id="style4688"
   type="text/css">
	.st0{fill:#191A18;}
</style><g
   id="g4694"
   transform="translate(60.774031,-383.72259)">
	
	<polygon
   id="polygon4692"
   points="123.3,504.8 123.3,513.1 126.7,513.1 126.7,507.6 126.7,507.6 126.7,504.8 136.9,503.2 136.9,508.1 130.8,509 130.8,512.4 140.2,511 140.2,499.3 125.4,501.5 124.6,501.5 109.7,499.3 109.7,511 119.1,512.4 119.1,509 113.1,508.1 113.1,503.2 "
   class="st0"
   style="fill:#191a18"
   transform="translate(-82.517483,-88.111888)" />
</g></svg>